<?xml version="1.0" encoding="utf-8"?>
<!-- Generator: Adobe Illustrator 25.2.1, SVG Export Plug-In . SVG Version: 6.00 Build 0)  -->
<svg version="1.1" id="Capa_1" xmlns="http://www.w3.org/2000/svg" xmlns:xlink="http://www.w3.org/1999/xlink" x="0px" y="0px"
	 viewBox="0 0 300 300" style="enable-background:new 0 0 300 300;" xml:space="preserve">
<style type="text/css">
	.st0{clip-path:url(#SVGID_1_);}
	.st1{fill:#56BCF4;}
	.st2{fill:#FBBDA2;}
	.st3{fill:#EEAC8A;}
	.st4{fill:#FFFFFF;}
	.st5{fill:#F9A844;}
	.st6{fill:#4A5172;}
	.st7{fill:#EFA58B;}
	.st8{fill:#242B54;}
	.st9{fill:#513D37;}
	.st10{fill:#E58925;}
	.st11{fill:#3B3D59;}
</style>
<g>
	<defs>
		<circle id="SVGID_3_" cx="150" cy="150" r="147.37"/>
	</defs>
	<clipPath id="SVGID_1_">
		<use xlink:href="#SVGID_3_"  style="overflow:visible;"/>
	</clipPath>
	<g class="st0">
		<circle class="st1" cx="150" cy="163.07" r="177.09"/>
		<g>
			<g>
				<g>
					<path class="st2" d="M-11.04,114.95c3.31-2.26,21.48-15,16.66-16.03c-4.81-1.03-9.84,1.39-9.84,1.39S8.32,84.57,6.56,80.91
						c-1.76-3.66-15.6,10.61-15.6,10.61s7.63-22.99,3.9-24.29c-3.73-1.3-12.15,22.16-12.15,22.16s0.53-22.99-2.79-22.97
						c-3.71,0.02-6.01,23.27-6.01,23.27s-6.16-11.84-9.78-10.92c-3.62,0.92,6.1,34.8,6.1,34.8L-11.04,114.95z"/>
					<path class="st2" d="M252.38,403.99c-3.09,2.55-23.34,18.7-18.46,19.31c4.88,0.6,9.68-2.26,9.68-2.26s-11.09,16.79-9.01,20.28
						c2.08,3.49,14.6-11.95,14.6-11.95s-5.57,23.57-1.74,24.54c3.83,0.97,10.15-23.14,10.15-23.14s1.51,22.94,4.81,22.63
						c3.7-0.35,3.93-23.71,3.93-23.71s7.18,11.25,10.71,10.01c3.53-1.23-7.02-33.14-7.02-33.14L252.38,403.99z"/>
					<g>
						<path class="st2" d="M251.93,407.9c-4.63-44.43-25.95-84.71-51.89-119.96c8.37-8.78,16.84-17.46,25.2-26.25
							C268.1,299.83,273.01,366,269.9,418.94C263.97,415.17,257.96,411.52,251.93,407.9z"/>
					</g>
					<path id="XMLID_16_" class="st3" d="M102.99,705.51l-26.44,2.24l18.74-248.36l41.46-9.69
						C126.25,514.88,108.02,654.49,102.99,705.51z"/>
					<polygon id="XMLID_15_" class="st4" points="104.93,712.91 73.9,711.69 76.34,688.77 106.65,688.77 					"/>
					<path id="XMLID_14_" class="st3" d="M221.91,709.87l-26.8,2.18l-32.55-242.69l39.43-9.47
						C205.18,523.59,216.24,660.02,221.91,709.87z"/>
					<polygon id="XMLID_13_" class="st4" points="191.19,711.69 223.93,711.69 221.56,688.77 189.94,688.77 					"/>
					<path id="XMLID_12_" class="st5" d="M110.56,675.44c-12.64,2.04-20.87,1.79-34.02-0.02l23.99-281.32h59.86L110.56,675.44z"/>
					<path id="XMLID_11_" class="st5" d="M221.91,676.3c-12.69,1.72-22.04,2.08-34.24-0.03l-46.7-281.54l60.95-0.96L221.91,676.3z"
						/>
					<path id="XMLID_10_" class="st5" d="M197.56,436.35c0,20.1-21.3,36.39-47.58,36.39s-47.58-16.29-47.58-36.39
						c0-20.1,21.3-36.39,47.58-36.39C176.26,399.96,197.56,416.25,197.56,436.35z"/>
					<path class="st6" d="M169.35,204.5c-3.6-2.55-13.39-4.95-14.66-4.42c-1.24-0.59-11.13,1.36-14.84,3.75
						c-22.59,14.51-57.16,23.31-57.71,46.16c0,0,0.08,16.38,11.77,16.65l2.84,7.72L97,409.48c20.73,23.54,71.78,14.3,95.33,8.44
						c7.53-1.88,12.28-3.41,12.28-3.41l-3.28-53.39l0.14-44.01l0.15-48.02l10.75,0.25c11.69,0.27,12.52-16.09,12.52-16.09
						C225.39,230.4,191.26,220.02,169.35,204.5z"/>
					<path id="XMLID_9_" class="st4" d="M129.48,209.79c0,0-3.41,21.97,21.26,22.95c24.67,0.98,28.57-22.02,28.57-22.02l-19.93-13
						l-15.19,1.85L129.48,209.79z"/>
					<path class="st2" d="M157.92,206.02c-6,1.76-14.03,1.57-19.02,1.21l-0.18,8.07c-0.31,13.53,28.7,14.2,29.01,0.66l0.32-13.99
						C164.38,203.67,160.76,205.19,157.92,206.02z"/>
					<path class="st3" d="M168.75,170.92l-29.01-0.66l-0.44,19.27c9.21-1.05,21.83-2.51,29.1-3.42L168.75,170.92z"/>
					<path class="st7" d="M157.92,206.02c2.84-0.83,6.46-2.35,10.13-4.05l0.36-15.86c-7.26,0.92-19.88,2.37-29.1,3.42l-0.41,17.7
						C143.89,207.59,151.91,207.77,157.92,206.02z"/>
					<path id="XMLID_8_" class="st7" d="M135.33,200.15L135.33,200.15c-25.99-4.51-43.41-29.24-38.9-55.23l8.82-50.86
						c4.51-25.99,29.24-43.41,55.23-38.9h0c25.99,4.51,43.41,29.23,38.9,55.23l-8.82,50.86
						C186.05,187.24,161.32,204.66,135.33,200.15z"/>
					<path id="XMLID_7_" class="st2" d="M128.62,198.99L128.62,198.99c-23.9-4.15-37.06-25.94-32.91-49.84l7.28-59.39
						c4.15-23.9,26.88-39.91,50.78-35.77l0,0c23.9,4.15,39.91,26.88,35.77,50.78l-10.14,58.45
						C175.26,187.12,152.52,203.13,128.62,198.99z"/>
					<g>
						<g>
							<path class="st8" d="M115.22,121.74c-2.33-0.4-4.86,2.74-5.55,6.83c-0.69,4.09,0.69,7.88,3.01,8.27
								c2.34,0.4,4.86-2.74,5.55-6.83C118.92,125.91,117.54,122.13,115.22,121.74z"/>
							<path class="st8" d="M159.26,130.09c-2.34-0.39-4.86,2.74-5.55,6.83c-0.69,4.09,0.69,7.88,3.01,8.27
								c2.35,0.41,4.86-2.74,5.55-6.83C162.96,134.27,161.58,130.49,159.26,130.09z"/>
						</g>
					</g>
					<path id="XMLID_6_" class="st9" d="M110.79,111.12c5.06-0.03,9.77,0.55,14.57,1.84c2.01,0.54,4.05-0.8,4.4-2.85l0-0.01
						c0.3-1.72-0.67-3.46-2.33-4c-5.56-1.82-11.21-2.54-16.97-2.13c-1.75,0.12-3.1,1.6-3.22,3.35l0,0
						C107.12,109.36,108.74,111.13,110.79,111.12z"/>
					<path id="XMLID_4_" class="st9" d="M154.01,117.82c5.63,0.23,10.82,1.14,16.08,2.86c1.98,0.65,4.08-0.6,4.54-2.63l0.11-0.47
						c0.38-1.7-0.49-3.49-2.12-4.12c-6-2.33-12.16-3.43-18.5-3.28c-1.75,0.04-3.18,1.45-3.39,3.19l-0.05,0.46
						C150.44,115.88,151.96,117.74,154.01,117.82z"/>
					<path id="XMLID_3_" class="st7" d="M186.03,151.33c-3.45,10.43-0.27,20.13,7.11,21.67c7.38,1.54,16.16-5.67,19.61-16.1
						c3.45-10.43,0.27-20.13-7.11-21.67C198.26,133.69,189.48,140.9,186.03,151.33z"/>
					<path id="XMLID_2_" class="st7" d="M123.01,144.61c0,0,1.12,8.91,7.01,9.33c5.89,0.43,9.3-5.86,9.3-5.86s-6.03,1.96-9.58,1.22
						C126.19,148.56,123.01,144.61,123.01,144.61z"/>
					<path class="st9" d="M186.69,95.68c0,0-33.31,10.1-87.96,5.59c-6.58-1.34-8.93-55.53,6.3-53.72
						c44.49,5.29,75.77-12.4,96.07,16.12c0,0,18.47,1.06,26.08,8.97c0,0-5.85,0.61-10.49,2.36c0,0,3.96,8.67,3.54,25.36
						c-0.42,16.69-17.08,36.34-17.08,36.34s-6.64,0.21-12.13,8.25c0,0-2.51-6.39-5.02-11.86
						C186.01,133.07,178.94,115.06,186.69,95.68z"/>
					<path class="st4" d="M23.06,737.65l84.99-0.31l0.09-5.62H23.15C22.89,733.59,22.84,735.56,23.06,737.65z"/>
					<path class="st6" d="M108.51,704.94c0-1.66-1.34-3-2.99-3.01l-31.13-0.14l-9.17,10.52l-21.76,2.19
						c-10.47,0-18.9,6.77-20.32,17.23h84.99l0.31-20.08l0.06,0L108.51,704.94z"/>
					<path class="st4" d="M44.56,714.39c0,0,9.3,1.95,15.23,7.26h7.11c0,0-4.12-4.64-13.19-8.18L44.56,714.39z"/>
					<path class="st4" d="M57.06,713.14c0,0,9.3,1.95,15.23,7.26h7.11c0,0-4.12-4.64-13.19-8.18L57.06,713.14z"/>
					<path class="st4" d="M189.67,731.72l0.09,5.62l84.99,0.31c0.23-2.1,0.18-4.07-0.06-5.93H189.67z"/>
					<path class="st6" d="M274.68,731.72c-1.35-10.29-9.49-16.57-19.94-16.57l-22.85-2.52l-8.47-10.85l-31.13,0.14
						c-1.66,0.01-2.99,1.35-2.99,3.01l0,6.7l0.06,0l0.31,20.08H274.68z"/>
					<path class="st4" d="M251.67,714.69c0,0-9.3,1.95-15.23,7.26h-7.11c0,0,4.12-4.64,13.19-8.18L251.67,714.69z"/>
					<path class="st4" d="M239.17,713.44c0,0-9.3,1.95-15.23,7.26h-7.11c0,0,4.12-4.64,13.19-8.18L239.17,713.44z"/>
					<path class="st10" d="M98.26,470.91c-1.12-0.31-1.1-3.88,4.71-24.92c5.81-21.03,7.63-24.11,8.75-23.8
						c1.12,0.31,1.1,3.88-4.71,24.92C101.2,468.15,99.37,471.22,98.26,470.91z"/>
					<path class="st10" d="M201.7,470.91c1.12-0.31,1.1-3.88-4.71-24.92c-5.81-21.03-7.63-24.11-8.75-23.8
						c-1.12,0.31-1.1,3.88,4.71,24.92C198.76,468.15,200.59,471.22,201.7,470.91z"/>
					<path class="st11" d="M208.66,307.59c1.4,0.52-3.95-14.69-18.47-41.14c0,0,14.3,135.06-13.5,154.86c0,0,15.02-1.46,27.91-6.8
						c0,0-1.48-68.28-2.33-124.37C202.28,290.14,185.93,299.15,208.66,307.59z"/>
					<path class="st6" d="M219.69,238.52c0,0,14.28,21.09,37.77,55.24l-32.56,31.82l-35.24-37.36l-2.41-50.03L219.69,238.52z"/>
					<path class="st6" d="M85.93,238.52c0,0-14.28,21.09-37.77,55.24l32.56,31.82l35.24-37.36l2.41-50.03L85.93,238.52z"/>
					<path class="st10" d="M206.93,669.33c8.28,0,17.77-1.36,18.9,1.36c1.13,2.71,2.94,12.89,0,13.34c-2.94,0.45-39.79,1.36-40.69,0
						c-0.9-1.36-3.57-15-1.13-15.03C186.46,668.96,206.93,669.33,206.93,669.33z"/>
					<path class="st10" d="M95.48,669.33c8.28,0,17.77-1.36,18.9,1.36c1.13,2.71,2.94,12.89,0,13.34c-2.94,0.45-39.79,1.36-40.69,0
						c-0.9-1.36-3.57-15-1.13-15.03C75,668.96,95.48,669.33,95.48,669.33z"/>
				</g>
				<path class="st4" d="M118.42,170.95l27.98-5.06c0,0-4.35,8.75-14.2,9.7C123.54,176.41,118.42,170.95,118.42,170.95z"/>
			</g>
			<g>
				<g>
					<g>
						<g>
							<path class="st8" d="M154.43,155.4c-10.28-1.82-17.16-11.66-15.34-21.94c1.82-10.28,11.66-17.16,21.94-15.34
								c10.28,1.82,17.16,11.66,15.34,21.94C174.55,150.34,164.71,157.22,154.43,155.4z M160.57,120.74
								c-8.84-1.56-17.3,4.35-18.86,13.19c-1.56,8.84,4.35,17.3,13.19,18.86c8.84,1.56,17.3-4.35,18.86-13.19
								C175.32,130.77,169.41,122.31,160.57,120.74z"/>
						</g>
					</g>
					<g>
						<g>
							<path class="st8" d="M110.84,147.26c-10.28-1.82-17.16-11.66-15.34-21.94c1.82-10.28,11.66-17.16,21.94-15.34
								c10.28,1.82,17.16,11.66,15.34,21.94C130.96,142.2,121.12,149.08,110.84,147.26z M116.98,112.6
								c-8.84-1.56-17.3,4.35-18.86,13.19c-1.56,8.84,4.35,17.3,13.19,18.86c8.84,1.56,17.3-4.35,18.86-13.19
								C131.73,122.63,125.81,114.17,116.98,112.6z"/>
						</g>
					</g>
					<g>
						<g>
							<polygon class="st8" points="140.75,133.9 128.23,131.83 128.69,129.22 141.21,131.28 							"/>
						</g>
					</g>
				</g>
			</g>
		</g>
	</g>
</g>
</svg>
