<?xml version="1.0" encoding="utf-8"?>
<!-- Generator: Adobe Illustrator 25.2.1, SVG Export Plug-In . SVG Version: 6.00 Build 0)  -->
<svg version="1.1" id="Capa_1" xmlns="http://www.w3.org/2000/svg" xmlns:xlink="http://www.w3.org/1999/xlink" x="0px" y="0px"
	 viewBox="0 0 300 300" style="enable-background:new 0 0 300 300;" xml:space="preserve">
<style type="text/css">
	.st0{clip-path:url(#SVGID_2_);fill:#56BCF4;}
	.st1{clip-path:url(#SVGID_4_);}
	.st2{fill:#DCE1E5;}
	.st3{fill:#DD7C6C;}
	.st4{fill:#0AC142;}
	.st5{fill:#3B97F2;}
	.st6{fill:#FFFFFF;}
	.st7{fill:#FCBCA3;}
	.st8{fill:#BF584B;}
	.st9{fill:#242B54;}
	.st10{fill:#FF8585;}
	.st11{fill:#076CD1;}
	.st12{fill:#161414;}
</style>
<g>
	<g>
		<g>
			<defs>
				<circle id="SVGID_1_" cx="150" cy="150" r="147.01"/>
			</defs>
			<clipPath id="SVGID_2_">
				<use xlink:href="#SVGID_1_"  style="overflow:visible;"/>
			</clipPath>
			<ellipse class="st0" cx="150" cy="150" rx="176.65" ry="176.65"/>
		</g>
		<g>
			<defs>
				<circle id="SVGID_3_" cx="150" cy="150" r="147.01"/>
			</defs>
			<clipPath id="SVGID_4_">
				<use xlink:href="#SVGID_3_"  style="overflow:visible;"/>
			</clipPath>
			<g class="st1">
				<path class="st2" d="M347.54,755.36c0,8.25-74.82,14.94-167.11,14.94s-167.11-6.69-167.11-14.94s74.82-14.94,167.11-14.94
					S347.54,747.11,347.54,755.36z"/>
				<path class="st3" d="M148.86,131.96c0,0,8.96-5.11,20.11,7.28l-0.9,4.01l-19.83-8.01L148.86,131.96z"/>
				<path class="st3" d="M106.77,125.36c0,0,8.96-5.11,20.11,7.28l-0.9,4.01l-19.83-8.01L106.77,125.36z"/>
				<g>
					<path class="st3" d="M204.21,524.81c0,0,0.41,35.19,80.03,21.06l4.76,25.92c0,0-94.35,34.89-115.48-41.71L204.21,524.81z"/>
					<path class="st3" d="M162.59,640.75c0,0-38.01-53.8-35.82-133.75l-29.87-5.23c0,0-23.97,80.54,45.89,156.08L162.59,640.75z"/>
					<path class="st3" d="M321.42,353.51c0,0-13.54,20.63-11.2,23.57s12.16-6.37,12.16-6.37s-2.75,25.28-0.21,26.46
						s8.83-20.23,8.83-20.23s2.73,22.41,7.64,21.86c4.91-0.55,2.3-22.09,2.3-22.09s12.32,17.88,13.91,16.81
						c1.59-1.08-7.83-24.97-7.83-24.97s10.98,9.39,13.22,8.23c2.23-1.16-9.15-18.52-30.48-29.15L321.42,353.51z"/>
					<path class="st3" d="M10.78,68.78c0,0,16.11-18.69,14.18-21.91c-1.93-3.22-12.89,4.73-12.89,4.73s6.02-24.71,3.65-26.21
						C13.36,23.89,4.33,44.3,4.33,44.3S4.54,21.72-0.4,21.63c-4.94-0.1-5.16,21.6-5.16,21.6s-9.88-19.34-11.6-18.48
						c-1.72,0.86,4.51,25.78,4.51,25.78s-9.67-10.74-12.03-9.88c-2.36,0.86,6.66,19.55,26.42,32.87L10.78,68.78z"/>
					<path class="st4" d="M126.39,266.39l10.33-16.14c9.46-10.37,12.35-25.41,6.63-38.23c-2.41-5.4-5.69-9.23-10.08-8.05
						c-11.81,3.17-70.99,21.55-117.39,195.79l23.3,5.46C50.91,379.48,117.15,261.69,126.39,266.39z"/>
					<path id="XMLID_133_" class="st5" d="M129.87,529.45c-14.69,1.45-27.53,0.41-42.04-3.08l13.11-141.09l64.76-25.84
						L129.87,529.45z"/>
					<path id="XMLID_132_" class="st5" d="M213.34,535.63c-12.59,1.71-30.69,0.74-42.8-1.36L141.06,385.9l60.48-0.95L213.34,535.63z
						"/>
					<path id="XMLID_131_" class="st5" d="M197.22,427.2c0,19.94-21.14,36.11-47.22,36.11s-47.22-16.17-47.22-36.11
						c0-19.94,21.14-36.11,47.22-36.11C176.08,391.08,197.22,407.25,197.22,427.2z"/>
					<path class="st4" d="M169.23,197.1c-3.83-2.12-13.29-4.92-14.55-4.39c-1.23-0.58-10.83,0.11-14.52,2.47
						c-14.33,9.2-22.46,14.43-34.58,24.13c-6.38,5.11-8.13,35.15-8.4,47.12c-0.77,33.52,0.24,134.1,0.24,134.1
						c20.57,23.37,71.24,14.2,94.61,8.38c7.48-1.86,12.18-3.38,12.18-3.38l-3.25-52.98l0.14-43.68l0.15-47.65l-1.52-45.74
						C199.73,208.81,189.91,208.52,169.23,197.1z"/>
					<path id="XMLID_130_" class="st6" d="M130.71,201.17c0,0-3.78,21.22,20.14,22.16c23.92,0.95,27.7-21.35,27.7-21.35
						l-19.33-11.76l-14.73,0.95L130.71,201.17z"/>
					<path class="st3" d="M157.88,198.61c-5.96,1.74-13.92,1.56-18.87,1.2l-0.18,8.01c-0.31,13.43,28.48,14.09,28.79,0.66
						l0.32-13.89C164.29,196.28,160.7,197.79,157.88,198.61z"/>
					<path class="st7" d="M168.63,163.78l-28.79-0.66l-0.44,19.13c9.14-1.04,21.67-2.49,28.88-3.4L168.63,163.78z"/>
					<path class="st8" d="M157.88,198.61c2.82-0.83,6.41-2.33,10.05-4.02l0.36-15.74c-7.21,0.91-19.73,2.36-28.88,3.4l-0.4,17.57
						C143.96,200.17,151.92,200.36,157.88,198.61z"/>
					<path id="XMLID_129_" class="st8" d="M135.46,192.79L135.46,192.79c-25.8-4.47-43.08-29.01-38.61-54.81l8.75-50.47
						c4.47-25.8,29.01-43.08,54.81-38.61l0,0c25.8,4.47,43.08,29.01,38.61,54.81l-8.75,50.48
						C185.8,179.98,161.25,197.27,135.46,192.79z"/>
					<path id="XMLID_128_" class="st3" d="M128.81,191.64L128.81,191.64c-23.72-4.11-36.78-25.74-32.66-49.46l7.23-58.94
						c4.11-23.72,26.68-39.61,50.39-35.5l0,0c23.72,4.11,39.61,26.68,35.5,50.39l-10.06,58.01
						C175.09,179.86,152.53,195.75,128.81,191.64z"/>
					<path id="XMLID_126_" class="st9" d="M111.11,104.43c5.02-0.03,9.7,0.54,14.45,1.82c2,0.54,4.02-0.79,4.37-2.83v-0.01
						c0.29-1.7-0.66-3.43-2.31-3.97c-5.52-1.8-11.13-2.52-16.84-2.11c-1.73,0.12-3.08,1.59-3.19,3.32l0,0
						C107.46,102.69,109.07,104.45,111.11,104.43z"/>
					<path id="XMLID_124_" class="st9" d="M154,111.09c5.59,0.22,10.74,1.13,15.96,2.84c1.96,0.64,4.05-0.59,4.5-2.61l0.1-0.46
						c0.38-1.69-0.49-3.46-2.11-4.09c-5.95-2.31-12.07-3.4-18.36-3.25c-1.74,0.04-3.16,1.43-3.36,3.16l-0.05,0.46
						C150.46,109.16,151.97,111.01,154,111.09z"/>
					<path id="XMLID_123_" class="st8" d="M185.78,144.34c-3.42,10.35-0.26,19.98,7.06,21.51c7.32,1.53,16.04-5.63,19.46-15.98
						c3.42-10.35,0.26-19.98-7.06-21.51C197.92,126.84,189.2,133.99,185.78,144.34z"/>
					<path id="XMLID_122_" class="st8" d="M119.36,139.03c0,0,1.25,8.84,7.97,9.24c6.72,0.41,10.62-5.85,10.62-5.85
						s-6.89,1.96-10.93,1.24C122.98,142.93,119.36,139.03,119.36,139.03z"/>
					<path class="st9" d="M133.85,166.76c3.63,0.44,6.41,1.65,8.6,3.27c3.59-4.96,4.33-10.72,4.33-10.72s-13.73,3.24-22.11,1.21
						c-8.37-2.04-15.09-5.43-15.09-5.43s-0.9,12.36,7.47,18.54C120.13,169.38,125.26,165.73,133.85,166.76z"/>
					<path class="st10" d="M142.45,170.02c-2.18-1.61-4.97-2.83-8.6-3.27c-8.59-1.03-13.73,2.62-16.79,6.86
						c2.18,1.61,4.97,2.83,8.6,3.26C134.25,177.92,139.39,174.26,142.45,170.02z"/>
					<g>
						<polygon id="XMLID_121_" class="st6" points="197.8,685.78 172.87,703.9 137.23,653.82 162.77,633.69 						"/>
						<path class="st5" d="M149.19,755.36l66.06-52.45l-3.39-4.44l-66.25,52.22C146.56,752.3,147.73,753.87,149.19,755.36z"/>
						<path class="st9" d="M195.69,677.37c-1.02-1.29-2.89-1.52-4.18-0.51l-24.35,19.01l-0.69,13.83l-15.61,15.08
							c-8.16,6.43-10.57,16.88-5.25,25.91l66.25-52.22l-12.1-15.84l0.04-0.04L195.69,677.37z"/>
						<path class="st5" d="M151.65,724.02c0,0,8.44-4.19,16.33-3.7l5.54-4.37c0,0-6.06-1.09-15.31,1.73L151.65,724.02z"/>
						<path class="st5" d="M160.62,715.37c0,0,8.44-4.19,16.33-3.7l5.54-4.37c0,0-6.06-1.09-15.31,1.73L160.62,715.37z"/>
					</g>
					<g>
						<polygon id="XMLID_1_" class="st6" points="329.76,529.8 341.99,559.9 282.46,576.47 270.65,547.39 						"/>
						<path class="st5" d="M347.01,519.45l5.2-2.02l32.03,78.03c-1.85,0.99-3.68,1.69-5.48,2.16L347.01,519.45z"/>
						<path class="st9" d="M378.77,597.62c-9.97,2.6-18.78-2.54-22.68-12.15l-10.85-20.07l-13.14-3.74l-11.5-28.67
							c-0.61-1.53,0.13-3.26,1.65-3.88l6.16-2.5l0.02,0.05l18.58-7.22L378.77,597.62z"/>
						<path class="st5" d="M354.51,582.81c0,0-1.68-9.27,0.98-16.72l-2.66-6.54c0,0-2.73,5.52-2.59,15.19L354.51,582.81z"/>
						<path class="st5" d="M348.7,571.79c0,0-1.68-9.27,0.98-16.72l-2.66-6.54c0,0-2.73,5.52-2.59,15.19L348.7,571.79z"/>
					</g>
					<path class="st11" d="M98.67,461.5c-1.11-0.31-1.09-3.85,4.67-24.73c5.77-20.87,7.58-23.93,8.68-23.62
						c1.11,0.31,1.09,3.85-4.67,24.73C101.59,458.75,99.78,461.81,98.67,461.5z"/>
					<path class="st11" d="M201.33,461.5c1.11-0.31,1.09-3.85-4.67-24.73c-5.77-20.87-7.58-23.93-8.68-23.62
						c-1.11,0.31-1.09,3.85,4.67,24.73C198.41,458.75,200.22,461.81,201.33,461.5z"/>
					<path class="st9" d="M154.95,126.16c-0.98,4.35,0.28,8.33,2.8,8.9c2.52,0.57,5.35-2.5,6.33-6.85s-0.28-8.33-2.8-8.9
						C158.76,118.74,155.93,121.81,154.95,126.16z"/>
					<path class="st9" d="M111.6,118.66c-0.98,4.35,0.28,8.33,2.8,8.9c2.52,0.57,5.35-2.5,6.33-6.85s-0.28-8.33-2.8-8.9
						C115.41,111.25,112.57,114.32,111.6,118.66z"/>
					<path class="st4" d="M186.66,274.52c-6.64-10.26-10.53-22.14-10.27-34.36c0.24-11.37,3.43-23.38,14.03-30.01
						c5.02-3.14,19.24,8.39,22.18,12.77c6.82,10.15,44.53,66.32,38.53,183.09l-22.35-2.11
						C221.16,347.05,198.47,292.77,186.66,274.52z"/>
				</g>
				<g>
					<g>
						<path class="st6" d="M117.54,116.99c0.43-1.33,0.11-2.62-0.73-2.9c-0.84-0.27-1.87,0.58-2.3,1.91s-0.11,2.62,0.73,2.9
							C116.07,119.17,117.1,118.32,117.54,116.99z"/>
						<path class="st9" d="M117.57,119.39c0.32-0.99,0.08-1.95-0.54-2.15c-0.62-0.2-1.39,0.43-1.71,1.42s-0.08,1.95,0.54,2.15
							S117.24,120.37,117.57,119.39z"/>
					</g>
					<g>
						<path class="st6" d="M160.59,125.13c0.43-1.33,0.11-2.62-0.73-2.9c-0.84-0.27-1.87,0.58-2.3,1.91
							c-0.43,1.33-0.11,2.62,0.73,2.9C159.12,127.31,160.16,126.46,160.59,125.13z"/>
						<path class="st9" d="M160.62,127.53c0.32-0.99,0.08-1.95-0.54-2.15c-0.62-0.2-1.39,0.43-1.71,1.42s-0.08,1.95,0.54,2.15
							C159.53,129.15,160.3,128.51,160.62,127.53z"/>
					</g>
				</g>
				<path class="st12" d="M184.75,91.93c0,0-75.21-15.84-96.04,6.53c0,0-1.91-34.51,16.3-48.55s73.59-21.15,94.77,8.61
					c0,0,19.96,7.53,19.96,38.28c0,17.42-17.82,37.92-17.82,37.92s-6.93,0.22-12.65,8.61c0,0-2.62-6.66-5.24-12.38
					C184.04,130.95,176.66,112.16,184.75,91.93z"/>
			</g>
		</g>
	</g>
</g>
</svg>
