<?xml version="1.0" encoding="utf-8"?>
<!-- Generator: Adobe Illustrator 25.2.1, SVG Export Plug-In . SVG Version: 6.00 Build 0)  -->
<svg version="1.1" id="Capa_1" xmlns="http://www.w3.org/2000/svg" xmlns:xlink="http://www.w3.org/1999/xlink" x="0px" y="0px"
	 viewBox="0 0 300 300" style="enable-background:new 0 0 300 300;" xml:space="preserve">
<style type="text/css">
	.st0{clip-path:url(#SVGID_1_);fill:#56BCF4;}
	.st1{clip-path:url(#SVGID_1_);}
	.st2{fill:#EEAC8A;}
	.st3{fill:#D13D3D;}
	.st4{fill:#FFFFFF;}
	.st5{fill:#4D405B;}
	.st6{fill:#E4554E;}
	.st7{fill:#E09473;}
	.st8{fill:#242B54;}
	.st9{fill:#FF6666;}
	.st10{fill:#382E44;}
</style>
<g>
	<defs>
		
			<ellipse id="SVGID_3_" transform="matrix(0.7071 -0.7071 0.7071 0.7071 -62.1321 150)" cx="150" cy="150" rx="147.01" ry="147.01"/>
	</defs>
	<clipPath id="SVGID_1_">
		<use xlink:href="#SVGID_3_"  style="overflow:visible;"/>
	</clipPath>
	<ellipse transform="matrix(0.7071 -0.7071 0.7071 0.7071 -62.1321 150)" class="st0" cx="150" cy="150" rx="176.65" ry="176.65"/>
	<g class="st1">
		<path class="st2" d="M299.15,108.8c0,0-16.2-18.79-14.25-22.03c1.94-3.24,12.96,4.75,12.96,4.75s-6.05-24.83-3.67-26.34
			c2.38-1.51,11.45,19,11.45,19s-0.22-22.69,4.75-22.79c4.97-0.1,5.18,21.71,5.18,21.71s9.93-19.43,11.66-18.57
			c1.73,0.86-4.53,25.91-4.53,25.91s9.72-10.8,12.09-9.93c2.38,0.86-6.69,19.65-26.56,33.04L299.15,108.8z"/>
		<path class="st2" d="M35.76,387.4c0,0,18.17,16.89,16.59,20.32c-1.57,3.43-13.4-3.29-13.4-3.29s8.75,24.02,6.55,25.78
			c-2.19,1.76-13.47-17.63-13.47-17.63s2.72,22.53-2.21,23.18s-7.54-21.01-7.54-21.01s-7.73,20.41-9.54,19.74
			c-1.81-0.67,1.65-26.26,1.65-26.26s-8.47,11.8-10.92,11.21c-2.46-0.6,4.49-20.27,22.76-35.77L35.76,387.4z"/>
		<path class="st3" d="M126.75,278.94l6.64-18.08c7.03-12.23,6.6-27.62-1.79-38.96c-3.54-4.78-7.59-7.82-11.64-5.71
			c-10.9,5.67-57.76,14.98-65.48,196.06l24.05,0.31C84.45,384.75,116.65,276.34,126.75,278.94z"/>
		<path id="XMLID_266_" class="st2" d="M106.35,700.03l-26.37,2.23l18.69-247.74l41.36-9.67
			C129.56,509.86,111.37,649.14,106.35,700.03z"/>
		<polygon id="XMLID_258_" class="st4" points="108.3,707.41 77.34,706.19 82.83,644.49 113.06,644.49 		"/>
		<path id="XMLID_262_" class="st2" d="M224.98,704.37l-26.73,2.18l-32.47-242.09l39.33-9.45
			C208.29,518.55,219.32,654.64,224.98,704.37z"/>
		<polygon id="XMLID_247_" class="st4" points="194.34,706.19 227,706.19 219.91,644.49 188.36,644.49 		"/>
		<path id="XMLID_263_" class="st5" d="M116.33,692.72c-14.77,1.45-27.67,0.41-42.26-3.1l29.84-300.23l65.1-25.98L116.33,692.72z"/>
		<path id="XMLID_259_" class="st5" d="M229.23,690.61c-12.66,1.71-30.85,0.74-43.02-1.37l-41.97-299.23l60.8-0.95L229.23,690.61z"
			/>
		<ellipse id="XMLID_255_" class="st5" cx="153.23" cy="431.53" rx="47.47" ry="36.3"/>
		<path class="st3" d="M172.56,200.25c-3.85-2.13-13.36-4.94-14.62-4.41c-1.24-0.59-10.89,0.11-14.59,2.48
			c-14.4,9.25-22.57,14.51-34.76,24.25c-6.42,5.13-8.17,35.34-8.45,47.36c-0.78,33.69,0.24,134.79,0.24,134.79
			c20.68,23.49,71.6,14.27,95.09,8.42c7.52-1.87,12.25-3.4,12.25-3.4l-3.27-53.25l0.14-43.9l0.15-47.9l-1.53-45.98
			C203.22,212.02,193.34,211.73,172.56,200.25z"/>
		<path id="XMLID_229_" class="st6" d="M133.11,205.05c0,0-3.92,21.98,20.86,22.96c24.77,0.98,28.69-22.12,28.69-22.12l-20.02-12.18
			l-15.26,0.98L133.11,205.05z"/>
		<path class="st2" d="M161.15,201.77c-5.99,1.75-13.99,1.57-18.97,1.21l-0.18,8.05c-0.31,13.5,28.62,14.16,28.93,0.66l0.32-13.96
			C167.59,199.43,163.98,200.94,161.15,201.77z"/>
		<path class="st2" d="M171.96,166.76l-28.93-0.66l-0.44,19.22c9.19-1.05,21.78-2.5,29.03-3.42L171.96,166.76z"/>
		<path class="st7" d="M161.15,201.77c2.83-0.83,6.45-2.34,10.1-4.04l0.36-15.82c-7.25,0.92-19.83,2.37-29.03,3.42l-0.4,17.66
			C147.15,203.34,155.16,203.52,161.15,201.77z"/>
		<path id="XMLID_219_" class="st7" d="M138.61,195.92L138.61,195.92c-25.93-4.5-43.3-29.16-38.81-55.09l8.8-50.73
			c4.5-25.93,29.16-43.3,55.09-38.81h0c25.93,4.5,43.3,29.16,38.81,55.09l-8.8,50.74C189.21,183.04,164.54,200.42,138.61,195.92z"/>
		<path id="XMLID_218_" class="st2" d="M131.93,194.76L131.93,194.76c-23.84-4.14-36.96-25.88-32.83-49.72l7.26-59.24
			c4.13-23.84,26.81-39.81,50.65-35.68l0,0c23.84,4.13,39.81,26.81,35.68,50.65l-10.11,58.3
			C178.45,182.92,155.77,198.89,131.93,194.76z"/>
		<path id="XMLID_209_" class="st8" d="M114.14,107.11c5.05-0.03,9.75,0.55,14.53,1.83c2.01,0.54,4.04-0.8,4.39-2.84l0-0.01
			c0.3-1.71-0.67-3.45-2.32-3.99c-5.55-1.81-11.19-2.53-16.93-2.12c-1.74,0.12-3.1,1.59-3.21,3.34l0,0
			C110.48,105.36,112.09,107.12,114.14,107.11z"/>
		<path id="XMLID_206_" class="st8" d="M157.25,113.8c5.62,0.23,10.8,1.13,16.04,2.85c1.97,0.65,4.07-0.6,4.53-2.62l0.11-0.47
			c0.38-1.7-0.49-3.48-2.12-4.11c-5.98-2.32-12.13-3.42-18.45-3.27c-1.75,0.04-3.18,1.44-3.38,3.18l-0.05,0.46
			C153.69,111.86,155.21,113.71,157.25,113.8z"/>
		<path id="XMLID_200_" class="st7" d="M189.19,147.22c-3.44,10.41-0.26,20.08,7.1,21.62c7.36,1.53,16.12-5.66,19.56-16.06
			c3.44-10.41,0.26-20.08-7.1-21.62C201.39,129.63,192.64,136.82,189.19,147.22z"/>
		<path id="XMLID_181_" class="st7" d="M122.43,141.88c0,0,1.25,8.88,8.01,9.29c6.75,0.41,10.68-5.88,10.68-5.88
			s-6.93,1.97-10.99,1.24C126.07,145.81,122.43,141.88,122.43,141.88z"/>
		<path class="st8" d="M189.85,91.7c0,0-53.34-19.29-91.8,6.24c0,0-1.82-32.99,15.58-46.41c17.41-13.42,68.62-23.14,90.79,15.95
			c18.32,1.86,27.97,20.66,20.78,36.97c-6.71,15.24-18.93,28.15-18.93,28.15s-6.63,0.21-12.1,8.23c0,0-2.5-6.37-5.01-11.83
			C189.17,129,182.12,111.04,189.85,91.7z"/>
		<path class="st8" d="M137,169.75c3.65,0.44,6.45,1.66,8.64,3.28c3.61-4.99,4.36-10.78,4.36-10.78s-13.8,3.26-22.22,1.21
			c-8.42-2.05-15.17-5.46-15.17-5.46s-0.9,12.42,7.51,18.64C123.2,172.39,128.36,168.71,137,169.75z"/>
		<path class="st9" d="M145.64,173.04c-2.2-1.62-4.99-2.84-8.64-3.28c-8.64-1.04-13.8,2.63-16.88,6.89c2.2,1.62,4.99,2.84,8.64,3.28
			C137.4,180.97,142.56,177.29,145.64,173.04z"/>
		<path class="st4" d="M26.63,732.09l84.78-0.3l0.09-5.61H26.71C26.46,728.04,26.4,730,26.63,732.09z"/>
		<path class="st8" d="M111.87,699.45c0-1.65-1.33-2.99-2.99-3l-31.05-0.14l-9.15,10.49l-21.7,2.19c-10.44,0-18.85,6.75-20.27,17.18
			h84.78l0.31-20.03l0.06,0L111.87,699.45z"/>
		<path class="st4" d="M48.07,708.88c0,0,9.27,1.94,15.2,7.24h7.09c0,0-4.11-4.63-13.16-8.16L48.07,708.88z"/>
		<path class="st4" d="M60.54,707.63c0,0,9.27,1.94,15.2,7.24h7.09c0,0-4.11-4.63-13.16-8.16L60.54,707.63z"/>
		<path class="st4" d="M192.82,726.17l0.09,5.61l84.78,0.3c0.23-2.1,0.18-4.06-0.06-5.92H192.82z"/>
		<path class="st8" d="M277.63,726.17c-1.34-10.27-9.47-16.52-19.89-16.52l-22.79-2.51l-8.45-10.82l-31.05,0.14
			c-1.65,0.01-2.99,1.35-2.99,3l0,6.68l0.06,0l0.31,20.03H277.63z"/>
		<path class="st4" d="M254.66,709.19c0,0-9.27,1.94-15.2,7.24h-7.09c0,0,4.11-4.63,13.16-8.16L254.66,709.19z"/>
		<path class="st4" d="M242.2,707.94c0,0-9.27,1.94-15.2,7.24h-7.09c0,0,4.11-4.63,13.16-8.16L242.2,707.94z"/>
		<path class="st10" d="M101.64,466.01c-1.11-0.31-1.1-3.87,4.7-24.86c5.8-20.98,7.62-24.05,8.73-23.74
			c1.11,0.31,1.1,3.87-4.7,24.86C104.57,463.25,102.75,466.32,101.64,466.01z"/>
		<path class="st10" d="M204.82,466.01c1.11-0.31,1.1-3.87-4.7-24.86c-5.8-20.98-7.62-24.05-8.73-23.74
			c-1.11,0.31-1.1,3.87,4.7,24.86C201.89,463.25,203.71,466.32,204.82,466.01z"/>
		<path class="st8" d="M158.21,128.94c-0.98,4.37,0.28,8.37,2.81,8.94c2.53,0.57,5.38-2.51,6.36-6.88c0.98-4.37-0.28-8.37-2.81-8.94
			S159.19,124.57,158.21,128.94z"/>
		<path class="st8" d="M114.63,121.41c-0.98,4.37,0.28,8.37,2.81,8.94c2.53,0.57,5.38-2.51,6.36-6.88c0.98-4.37-0.28-8.37-2.81-8.94
			C118.46,113.96,115.61,117.04,114.63,121.41z"/>
		<path class="st3" d="M187.84,273.2c0,0-14.55-42.97,9.59-58.26c5.02-3.18,19.39,8.32,22.37,12.71
			c6.91,10.16,45.14,66.4,39.8,183.8l-22.48-1.99C227.28,339.18,194.54,272.95,187.84,273.2z"/>
	</g>
</g>
</svg>
