<svg id="Capa_1" data-name="Capa 1" xmlns="http://www.w3.org/2000/svg" viewBox="0 0 1364.64 1200.66"><defs><style>.cls-1,.cls-7{fill:#0c3165;}.cls-2{font-size:317.07px;fill:#104ca5;font-family:CoolveticaRg-Italic, Coolvetica;font-style:italic;}.cls-3{letter-spacing:-0.15em;}.cls-4{letter-spacing:-0.03em;}.cls-5{letter-spacing:-0.01em;}.cls-6{letter-spacing:0.01em;}.cls-7{font-size:87.5px;font-family:MADEINFINITYPERSONALUSE-Light, MADE INFINITY PERSONAL USE;font-weight:300;}.cls-8{letter-spacing:-0.01em;}.cls-9{letter-spacing:-0.02em;}.cls-10{letter-spacing:0.01em;}.cls-11{letter-spacing:-0.05em;}.cls-12{letter-spacing:-0.01em;}</style></defs><path class="cls-1" d="M520.38,662.37,479,628.69,810.89,358.81a60.66,60.66,0,1,0-76.54-94.14l-389.82,317a60.66,60.66,0,0,0,0,94.13l99.31,80.75a60.66,60.66,0,0,0,76.54-94.14Z" transform="translate(-168.08 -250.07)"/><path class="cls-1" d="M1356.25,581.63l-112.17-91.21a60.66,60.66,0,0,0-76.54,94.13l54.29,44.14L889.89,898.58a60.66,60.66,0,1,0,76.54,94.13l389.82-317a60.64,60.64,0,0,0,0-94.13Z" transform="translate(-168.08 -250.07)"/><path class="cls-1" d="M1012.7,255A60.67,60.67,0,0,0,933,286.83L672.72,893.66a60.66,60.66,0,1,0,111.5,47.83l260.31-606.84A60.66,60.66,0,0,0,1012.7,255Z" transform="translate(-168.08 -250.07)"/><text class="cls-2" transform="translate(0 1040.65)">N<tspan class="cls-3" x="187.38" y="0">A</tspan><tspan class="cls-4" x="342.11" y="0">W</tspan><tspan class="cls-5" x="602.73" y="0">S</tspan><tspan x="778.7" y="0">O</tspan><tspan class="cls-6" x="991.14" y="0">F</tspan><tspan x="1155.06" y="0">T</tspan></text><text class="cls-7" transform="translate(234.6 1168.81)"><tspan class="cls-8">Desa</tspan><tspan class="cls-9" x="189.17" y="0">rro</tspan><tspan x="295.83" y="0">l</tspan><tspan class="cls-8" x="316.13" y="0">l</tspan><tspan x="335.55" y="0">o </tspan><tspan class="cls-8" x="417.18" y="0">d</tspan><tspan x="468.81" y="0">e </tspan><tspan class="cls-10" x="549.13" y="0">S</tspan><tspan class="cls-9" x="598.12" y="0">oft</tspan><tspan class="cls-11" x="702.16" y="0">w</tspan><tspan class="cls-12" x="775.39" y="0">a</tspan><tspan class="cls-9" x="818.36" y="0">r</tspan><tspan x="848.37" y="0">e</tspan></text></svg>